<?xml version="1.0" standalone="no"?>
<!DOCTYPE svg PUBLIC "-//W3C//DTD SVG 20010904//EN"
 "http://www.w3.org/TR/2001/REC-SVG-20010904/DTD/svg10.dtd">
<svg version="1.0" xmlns="http://www.w3.org/2000/svg"
 width="72.000000pt" height="72.000000pt" viewBox="0 0 72.000000 72.000000"
 preserveAspectRatio="xMidYMid meet">
<metadata>
Created by potrace 1.14, written by Peter Selinger 2001-2017
</metadata>
<g transform="translate(0.000000,72.000000) scale(0.100000,-0.100000)"
fill="#000000" stroke="none">
<path d="M350 620 c0 -16 4 -30 8 -30 5 0 9 14 10 30 0 17 -4 30 -9 30 -5 0
-9 -13 -9 -30z"/>
<path d="M240 602 c0 -10 33 -42 43 -42 15 0 5 19 -18 34 -14 9 -25 13 -25 8z"/>
<path d="M441 584 c-21 -25 -3 -30 22 -6 15 16 17 22 7 22 -8 -1 -21 -8 -29
-16z"/>
<path d="M309 541 c-34 -35 -36 -53 -9 -106 11 -22 20 -49 20 -60 0 -37 36
-57 67 -37 7 4 15 23 18 42 3 19 13 45 21 57 22 34 18 81 -10 106 -36 33 -72
32 -107 -2z m57 -11 c8 0 19 -11 25 -24 7 -15 17 -22 26 -19 12 5 12 0 -2 -28
-23 -45 -29 -50 -21 -16 3 15 2 27 -3 27 -5 0 -14 -12 -19 -27 l-10 -28 -7 28
c-4 15 -12 27 -17 27 -6 0 -7 -11 -3 -27 6 -25 5 -26 -9 -13 -28 27 -30 72 -5
99 14 15 24 20 27 13 2 -7 10 -12 18 -12z m45 -7 c13 -16 12 -17 -3 -4 -17 13
-22 21 -14 21 2 0 10 -8 17 -17z"/>
<path d="M205 490 c3 -5 17 -10 31 -10 13 0 24 5 24 10 0 6 -14 10 -31 10 -17
0 -28 -4 -24 -10z"/>
<path d="M460 490 c0 -5 14 -10 31 -10 17 0 28 4 24 10 -3 6 -17 10 -31 10
-13 0 -24 -4 -24 -10z"/>
<path d="M260 400 c-12 -12 -19 -24 -16 -28 4 -3 16 4 28 16 12 12 19 24 16
28 -4 3 -16 -4 -28 -16z"/>
<path d="M430 411 c0 -9 33 -41 44 -41 4 0 2 8 -3 19 -11 20 -41 36 -41 22z"/>
<path d="M114 255 c-7 -50 -5 -58 13 -47 16 10 21 84 6 89 -7 3 -14 -13 -19
-42z"/>
<path d="M586 288 c-11 -36 -14 -78 -6 -83 12 -7 22 11 30 57 6 29 4 38 -7 38
-7 0 -15 -6 -17 -12z"/>
<path d="M255 277 c-20 -12 -31 -67 -14 -67 17 0 24 5 27 20 5 24 10 60 9 60
-1 -1 -11 -6 -22 -13z"/>
<path d="M153 254 c-7 -18 0 -45 12 -45 6 0 13 10 17 23 l6 23 1 -22 c1 -13 7
-23 15 -23 15 0 27 32 17 48 -9 14 -62 12 -68 -4z"/>
<path d="M292 258 c-7 -7 -12 -20 -12 -30 0 -13 8 -18 30 -18 22 0 30 5 30 18
1 16 1 16 11 -1 6 -10 8 -25 5 -33 -3 -8 -1 -14 4 -14 6 0 10 8 11 18 0 10 3
12 6 5 13 -33 53 6 53 51 0 16 -49 19 -67 4 -7 -6 -14 -5 -18 2 -8 14 -38 13
-53 -2z m34 -13 c-1 -8 -5 -17 -8 -21 -5 -4 -4 16 1 34 3 9 9 -1 7 -13z m74
-5 c0 -5 -5 -10 -11 -10 -5 0 -7 5 -4 10 3 6 8 10 11 10 2 0 4 -4 4 -10z"/>
<path d="M440 255 c0 -5 -3 -20 -6 -33 -5 -17 -3 -21 9 -16 9 3 17 13 19 22 2
8 12 16 23 17 11 2 29 6 40 9 11 4 7 0 -8 -9 -21 -12 -26 -19 -18 -29 24 -29
86 11 66 43 -7 13 -125 9 -125 -4z"/>
</g>
</svg>
